<svg version="1.1" xmlns="http://www.w3.org/2000/svg" x="0px" y="0px" width="874.1px" height="874.1px" viewBox="0 0 874.1 874.1">
<path d="M50,300.05c-27.6,0-50,22.4-50,50v174c0,27.6,22.4,50,50,50s50-22.4,50-50v-174C100,322.45,77.6,300.05,50,300.05z"/>
<path d="M690.1,244.55c-27.6,0-50,22.4-50,50v102.5h-406v-102.5c0-27.6-22.4-50-50-50c-27.6,0-50,22.4-50,50v285c0,27.6,22.4,50,50,50c27.6,0,50-22.4,50-50v-102.5h406v102.5c0,27.6,22.4,50,50,50s50-22.4,50-50v-285C740.1,266.95,717.699,244.55,690.1,244.55z"/>
<path d="M824.1,300.05c-27.6,0-50,22.4-50,50v174c0,27.6,22.4,50,50,50s50-22.4,50-50v-174C874.1,322.45,851.699,300.05,824.1,300.05z"/>
</svg>