<svg width="40" height="32" viewBox="0 0 40 32" fill="none" xmlns="http://www.w3.org/2000/svg">
<path d="M36.6667 0H3.33333C1.5 0 0 1.6 0 3.55556V28.4444C0 30.4 1.5 32 3.33333 32H36.6667C38.5 32 39.9833 30.4 39.9833 28.4444L40 3.55556C40 1.6 38.5 0 36.6667 0ZM13.3333 5.33333C16.1 5.33333 18.3333 7.71556 18.3333 10.6667C18.3333 13.6178 16.1 16 13.3333 16C10.5667 16 8.33333 13.6178 8.33333 10.6667C8.33333 7.71556 10.5667 5.33333 13.3333 5.33333ZM23.3333 26.6667H3.33333V24.8889C3.33333 21.3333 10 19.3778 13.3333 19.3778C16.6667 19.3778 23.3333 21.3333 23.3333 24.8889V26.6667ZM29.75 19.5556H32.4833L35 23.1111L31.6833 26.6489C29.5 24.9067 27.8833 22.4178 27.1333 19.5556C26.8333 18.4178 26.6667 17.2267 26.6667 16C26.6667 14.7733 26.8333 13.5822 27.1333 12.4444C27.8833 9.56444 29.5 7.09333 31.6833 5.35111L35 8.88889L32.4833 12.4444H29.75C29.3833 13.5644 29.1667 14.7556 29.1667 16C29.1667 17.2444 29.3833 18.4356 29.75 19.5556Z" fill="white"/>
</svg>
