<svg width="32" height="36" viewBox="0 0 32 36" fill="none" xmlns="http://www.w3.org/2000/svg">
<path d="M13.6 0.817831L1.6 10.0763C0.6 10.8581 0 12.072 0 13.3682V31.8851C0 34.1483 1.8 36 4 36H28C30.2 36 32 34.1483 32 31.8851V13.3682C32 12.072 31.4 10.8581 30.4 10.0763L18.4 0.817831C16.98 -0.27261 15.02 -0.27261 13.6 0.817831ZM11.5 18.5118C12.88 18.5118 14 19.664 14 21.0836C14 22.5032 12.88 23.6554 11.5 23.6554C10.12 23.6554 9 22.5032 9 21.0836C9 19.664 10.12 18.5118 11.5 18.5118ZM25 29.8277C24.44 29.8277 24 29.3751 24 28.799V26.7415H8V28.799C8 29.3751 7.56 29.8277 7 29.8277C6.44 29.8277 6 29.3751 6 28.799V16.4544C6 15.8783 6.44 15.4256 7 15.4256C7.56 15.4256 8 15.8783 8 16.4544V24.6841H15V18.5118C15 17.9357 15.44 17.4831 16 17.4831H22C24.2 17.4831 26 19.3348 26 21.5979V28.799C26 29.3751 25.56 29.8277 25 29.8277Z" fill="white"/>
</svg>
