<svg width="21" height="25" viewBox="0 0 21 25" xmlns="http://www.w3.org/2000/svg">
<path d="M10.1639 0C4.82785 0 0 4.09097 0 10.418C0 14.4581 3.11269 19.2098 9.32537 24.6856C9.80816 25.1048 10.5323 25.1048 11.0151 24.6856C17.2151 19.2098 20.3278 14.4581 20.3278 10.418C20.3278 4.09097 15.4999 0 10.1639 0ZM10.1639 12.7049C8.76636 12.7049 7.62292 11.5614 7.62292 10.1639C7.62292 8.76636 8.76636 7.62292 10.1639 7.62292C11.5614 7.62292 12.7049 8.76636 12.7049 10.1639C12.7049 11.5614 11.5614 12.7049 10.1639 12.7049Z"/>
</svg>
