<svg width="31" height="34" viewBox="0 0 31 34" fill="none" xmlns="http://www.w3.org/2000/svg">
<path d="M22.3333 6.99998V17C22.3333 18.8333 23.8708 20.3333 25.75 20.3333H27.4583V32C27.4583 32.9166 28.2271 33.6666 29.1667 33.6666C30.1063 33.6666 30.875 32.9166 30.875 32V2.21665C30.875 1.13331 29.8329 0.333313 28.7567 0.583313C25.0667 1.46665 22.3333 4.51665 22.3333 6.99998ZM13.7917 12H10.375V1.99998C10.375 1.08331 9.60625 0.333313 8.66667 0.333313C7.72708 0.333313 6.95833 1.08331 6.95833 1.99998V12H3.54167V1.99998C3.54167 1.08331 2.77292 0.333313 1.83333 0.333313C0.89375 0.333313 0.125 1.08331 0.125 1.99998V12C0.125 15.6833 3.18292 18.6666 6.95833 18.6666V32C6.95833 32.9166 7.72708 33.6666 8.66667 33.6666C9.60625 33.6666 10.375 32.9166 10.375 32V18.6666C14.1504 18.6666 17.2083 15.6833 17.2083 12V1.99998C17.2083 1.08331 16.4396 0.333313 15.5 0.333313C14.5604 0.333313 13.7917 1.08331 13.7917 1.99998V12Z" fill="white"/>
</svg>
