<svg width="25" height="25" viewBox="0 0 25 25" xmlns="http://www.w3.org/2000/svg">
<path d="M12.1429 0C5.46429 0 0 5.46429 0 12.1429C0 18.8214 5.46429 24.2857 12.1429 24.2857C18.8214 24.2857 24.2857 18.8214 24.2857 12.1429C24.2857 5.46429 18.8214 0 12.1429 0ZM16.4536 16.7571L11.4993 13.7093C11.135 13.4907 10.9164 13.1021 10.9164 12.6771V6.98214C10.9286 6.48429 11.3414 6.07143 11.8393 6.07143C12.3371 6.07143 12.75 6.48429 12.75 6.98214V12.3857L17.4129 15.1907C17.85 15.4579 17.9957 16.0286 17.7286 16.4657C17.4614 16.8907 16.8907 17.0243 16.4536 16.7571Z"/>
</svg>
