<svg width="13" height="12" viewBox="0 0 13 12" fill="none" xmlns="http://www.w3.org/2000/svg">
<path d="M11.4978 0.7575C11.3533 0.315 10.9489 0 10.4722 0H2.52778C2.05111 0 1.65389 0.315 1.50222 0.7575L0.0794444 5.01C0.0288888 5.1675 0 5.3325 0 5.505V10.875C0 11.4975 0.483889 12 1.08333 12C1.68278 12 2.16667 11.4975 2.16667 10.875V10.5H10.8333V10.875C10.8333 11.49 11.3172 12 11.9167 12C12.5089 12 13 11.4975 13 10.875V5.505C13 5.34 12.9711 5.1675 12.9206 5.01L11.4978 0.7575ZM2.52778 8.25C1.92833 8.25 1.44444 7.7475 1.44444 7.125C1.44444 6.5025 1.92833 6 2.52778 6C3.12722 6 3.61111 6.5025 3.61111 7.125C3.61111 7.7475 3.12722 8.25 2.52778 8.25ZM10.4722 8.25C9.87278 8.25 9.38889 7.7475 9.38889 7.125C9.38889 6.5025 9.87278 6 10.4722 6C11.0717 6 11.5556 6.5025 11.5556 7.125C11.5556 7.7475 11.0717 8.25 10.4722 8.25ZM1.44444 4.5L2.36167 1.635C2.46278 1.335 2.73722 1.125 3.04778 1.125H9.95222C10.2628 1.125 10.5372 1.335 10.6383 1.635L11.5556 4.5H1.44444Z" />
</svg>
