<svg data-name="Layer 1" xmlns="http://www.w3.org/2000/svg" viewBox="0 0 128 128">
<path d="M104.677 23.75h-22.13c.06-1.3.071-2.482.051-3.482a1.751 1.751 0 0 0-1.222-1.632c-7.921-2.506-13.858-4.9-16.692-6.1a1.747 1.747 0 0 0-1.368 0c-2.832 1.2-8.766 3.592-16.691 6.1a1.749 1.749 0 0 0-1.225 1.632c-.021 1-.01 2.185.049 3.482H23.323a1.751 1.751 0 0 0-1.75 1.75v81.354a1.751 1.751 0 0 0 1.75 1.75h1.7v5.25a1.751 1.751 0 0 0 1.75 1.75h13.379a1.751 1.751 0 0 0 1.75-1.75V108.6H86.1v5.25a1.75 1.75 0 0 0 1.75 1.75h13.382a1.75 1.75 0 0 0 1.75-1.75v-5.25h1.7a1.75 1.75 0 0 0 1.75-1.75V25.5a1.75 1.75 0 0 0-1.755-1.75zM94.408 59.387v13.58h-5.622a1.092 1.092 0 0 1-1.086-1.091v-11.4a1.092 1.092 0 0 1 1.091-1.091zm-1.618-3.5h-4a4.6 4.6 0 0 0-4.59 4.591v11.4a4.6 4.6 0 0 0 4.591 4.591h4v18.5H35.21v-8.285a5.239 5.239 0 0 0 3.7-4.989V50.659a5.239 5.239 0 0 0-3.7-4.989v-8.283h12.856c2.916 7.936 8.049 13.363 15.307 16.147a1.753 1.753 0 0 0 1.254 0c7.258-2.784 12.39-8.21 15.307-16.147H92.79zm-59.528-6.978h.4a1.752 1.752 0 0 1 1.75 1.75v31.036a1.752 1.752 0 0 1-1.75 1.75h-.4a1.752 1.752 0 0 1-1.75-1.75V50.659a1.752 1.752 0 0 1 1.75-1.75zM64 16.045c2.933 1.225 8.228 3.319 15.106 5.54a47.039 47.039 0 0 1-1.35 11.023C75.553 41.276 70.927 47.129 64 50.016c-6.927-2.888-11.553-8.74-13.756-17.408a47.082 47.082 0 0 1-1.35-11.023c6.883-2.223 12.175-4.315 15.106-5.54zM25.073 27.25h20.659a46.553 46.553 0 0 0 1.12 6.22c.036.142.078.277.116.417H33.46a1.751 1.751 0 0 0-1.75 1.75V45.67a5.24 5.24 0 0 0-3.7 4.989v31.036a5.24 5.24 0 0 0 3.7 4.989v10.033a1.751 1.751 0 0 0 1.75 1.75h61.08a1.75 1.75 0 0 0 1.75-1.75V76.454a1.745 1.745 0 0 0 1.618-1.737v-17.08A1.745 1.745 0 0 0 96.29 55.9V35.637a1.75 1.75 0 0 0-1.75-1.75H81.032c.038-.14.08-.275.116-.417a46.581 46.581 0 0 0 1.12-6.22h20.659v77.85H25.073zM38.4 112.1h-9.881v-3.5H38.4zm61.079 0H89.6v-3.5h9.882z"/>
<path d="M60.651 37.222a1.747 1.747 0 0 0 1.251.528 1.745 1.745 0 0 0 1.25-.526l8.359-8.536a1.75 1.75 0 1 0-2.5-2.449L61.906 33.5l-2.916-2.991a1.75 1.75 0 1 0-2.505 2.445z"/>
</svg>