<svg width="16" height="12" viewBox="0 0 16 12" fill="none" xmlns="http://www.w3.org/2000/svg">
<path d="M0.324553 4.44496C0.718244 4.84959 1.34352 4.88926 1.76809 4.5243C5.37306 1.47769 10.6068 1.47769 14.2195 4.51636C14.6518 4.88132 15.2848 4.84959 15.6785 4.44496C16.1339 3.97686 16.1031 3.19934 15.6013 2.77884C11.1935 -0.926281 4.81726 -0.926281 0.401747 2.77884C-0.100016 3.1914 -0.138613 3.96893 0.324553 4.44496ZM6.31483 10.6017L7.44959 11.7679C7.75065 12.0774 8.23697 12.0774 8.53803 11.7679L9.67278 10.6017C10.0356 10.2288 9.9584 9.58611 9.49524 9.34016C8.55347 8.84033 7.42643 8.84033 6.47694 9.34016C6.03693 9.58611 5.95202 10.2288 6.31483 10.6017ZM3.43548 7.64231C3.81374 8.03107 4.40813 8.07074 4.84814 7.74545C6.73168 6.37289 9.26365 6.37289 11.1472 7.74545C11.5872 8.06281 12.1816 8.03107 12.5598 7.64231L12.5676 7.63438C13.0307 7.15835 12.9999 6.34909 12.4672 5.96033C9.81173 3.98479 6.19132 3.98479 3.52812 5.96033C2.99548 6.35702 2.9646 7.15835 3.43548 7.64231Z" />
</svg>
