<svg width="30" height="28" viewBox="0 0 30 28" fill="none" xmlns="http://www.w3.org/2000/svg">
<path d="M11.5409 0H1.13208C0.506848 0 0 0.494301 0 1.10405V11.2552C0 11.865 0.506848 12.3593 1.13208 12.3593H11.5409C12.1661 12.3593 12.673 11.865 12.673 11.2552V1.10405C12.673 0.494301 12.1661 0 11.5409 0Z" fill="white"/>
<path d="M28.868 0H18.4592C17.8339 0 17.3271 0.494301 17.3271 1.10405V11.2552C17.3271 11.865 17.8339 12.3593 18.4592 12.3593H28.868C29.4932 12.3593 30 11.865 30 11.2552V1.10405C30 0.494301 29.4932 0 28.868 0Z" fill="white"/>
<path d="M11.5409 15.6406H1.13208C0.506848 15.6406 0 16.1349 0 16.7447V26.8958C0 27.5056 0.506848 27.9999 1.13208 27.9999H11.5409C12.1661 27.9999 12.673 27.5056 12.673 26.8958V16.7447C12.673 16.1349 12.1661 15.6406 11.5409 15.6406Z" fill="white"/>
<path d="M28.868 15.6406H18.4592C17.8339 15.6406 17.3271 16.1349 17.3271 16.7447V26.8958C17.3271 27.5056 17.8339 27.9999 18.4592 27.9999H28.868C29.4932 27.9999 30 27.5056 30 26.8958V16.7447C30 16.1349 29.4932 15.6406 28.868 15.6406Z" fill="white"/>
</svg>
